<?xml version="1.0" encoding="UTF-8" standalone="no"?>
<!-- Generator: Adobe Illustrator 19.0.0, SVG Export Plug-In . SVG Version: 6.00 Build 0)  -->

<svg
   version="1.1"
   id="Layer_1"
   x="0px"
   y="0px"
   viewBox="0 0 512 423.11099"
   xml:space="preserve"
   sodipodi:docname="fox.svg"
   width="512"
   height="423.11099"
   inkscape:version="1.1.2 (0a00cf5339, 2022-02-04)"
   xmlns:inkscape="http://www.inkscape.org/namespaces/inkscape"
   xmlns:sodipodi="http://sodipodi.sourceforge.net/DTD/sodipodi-0.dtd"
   xmlns="http://www.w3.org/2000/svg"
   xmlns:svg="http://www.w3.org/2000/svg"><defs
   id="defs59" /><sodipodi:namedview
   id="namedview57"
   pagecolor="#ffffff"
   bordercolor="#666666"
   borderopacity="1.0"
   inkscape:pageshadow="2"
   inkscape:pageopacity="0.0"
   inkscape:pagecheckerboard="0"
   showgrid="false"
   inkscape:zoom="1.7050781"
   inkscape:cx="256"
   inkscape:cy="211.7205"
   inkscape:window-width="1920"
   inkscape:window-height="1011"
   inkscape:window-x="0"
   inkscape:window-y="0"
   inkscape:window-maximized="1"
   inkscape:current-layer="g6" />
<g
   id="g6"
   transform="translate(0,-44.444)">
	<g
   id="g4">
		<path
   d="m 460.994,200.379 c 11.845,-22.438 14.678,-52.681 8.38,-90.043 -4.739,-28.113 -13.077,-50.284 -13.43,-51.214 l -5.564,-14.676 -15.64,1.357 c -0.988,0.084 -24.503,2.192 -51.819,10.261 -27.22,8.041 -48.625,19.048 -63.996,32.834 -20.823,-6.88 -42.001,-10.493 -62.926,-10.493 -20.926,0 -42.103,3.613 -62.926,10.492 C 177.702,75.11 156.298,64.105 129.077,56.063 101.761,47.994 78.246,45.887 77.258,45.802 L 61.62,44.444 56.056,59.122 c -0.353,0.93 -8.69,23.1 -13.43,51.214 -6.298,37.362 -3.465,67.606 8.38,90.043 C 18.64,247.221 0,300.363 0,348.243 v 13.901 L 256,467.555 512,362.144 v -13.901 c 0,-47.88 -18.64,-101.022 -51.006,-147.864 z M 422.144,89.39 c 5.543,19.659 11.341,49.214 7.903,72.711 -20.584,-21.867 -43.329,-39.878 -67.203,-53.516 18.618,-10.134 42.03,-16.151 59.3,-19.195 z M 256,119.919 c 44.278,0 90.657,20.589 130.26,57.192 -57.491,5.184 -106.619,39.792 -132.178,88.611 -27.53,-46.995 -77.489,-79.324 -135.081,-82.173 41.018,-40.626 90.184,-63.63 136.999,-63.63 z M 89.802,89.46 c 7.799,1.38 17.728,3.488 28.188,6.616 12.011,3.59 22.428,7.805 31.123,12.533 -23.884,13.648 -46.635,31.672 -67.221,53.552 -3.523,-23.42 2.237,-52.769 7.91,-72.701 z M 256,422.662 42.12,334.592 c 3.028,-34.691 17.289,-72.182 40.192,-106.486 9.255,-2.156 18.783,-3.252 28.392,-3.252 59.162,0 108.818,41.469 121.437,96.865 h 46.357 c 9.912,-58.826 61.202,-103.784 122.801,-103.784 7.674,0 15.316,0.708 22.798,2.089 26.174,36.434 42.52,77.129 45.787,114.568 z"
   id="path2" />
	</g>
</g>
<g
   id="g12"
   transform="translate(0,-44.444)">
	<g
   id="g10">
		<circle
   cx="359.784"
   cy="300.95901"
   r="20.757"
   id="circle8" />
	</g>
</g>
<g
   id="g18"
   transform="translate(0,-44.444)">
	<g
   id="g16">
		<circle
   cx="152.216"
   cy="300.95901"
   r="20.757"
   id="circle14" />
	</g>
</g>
<g
   id="g24"
   transform="translate(0,-44.444)">
	<g
   id="g22">
		<path
   d="M 269.838,349.394 H 256 242.162 c -7.643,0 -13.838,6.195 -13.838,13.838 0,13.838 27.676,27.676 27.676,27.676 0,0 27.676,-13.838 27.676,-27.676 0,-7.642 -6.196,-13.838 -13.838,-13.838 z"
   id="path20" />
	</g>
</g>
<g
   id="g26"
   transform="translate(0,-44.444)">
</g>
<g
   id="g28"
   transform="translate(0,-44.444)">
</g>
<g
   id="g30"
   transform="translate(0,-44.444)">
</g>
<g
   id="g32"
   transform="translate(0,-44.444)">
</g>
<g
   id="g34"
   transform="translate(0,-44.444)">
</g>
<g
   id="g36"
   transform="translate(0,-44.444)">
</g>
<g
   id="g38"
   transform="translate(0,-44.444)">
</g>
<g
   id="g40"
   transform="translate(0,-44.444)">
</g>
<g
   id="g42"
   transform="translate(0,-44.444)">
</g>
<g
   id="g44"
   transform="translate(0,-44.444)">
</g>
<g
   id="g46"
   transform="translate(0,-44.444)">
</g>
<g
   id="g48"
   transform="translate(0,-44.444)">
</g>
<g
   id="g50"
   transform="translate(0,-44.444)">
</g>
<g
   id="g52"
   transform="translate(0,-44.444)">
</g>
<g
   id="g54"
   transform="translate(0,-44.444)">
</g>
</svg>
